<?xml version="1.0" encoding="UTF-8" standalone="no"?>
<!-- Created with Inkscape (http://www.inkscape.org/) -->

<svg
   xmlns:dc="http://purl.org/dc/elements/1.1/"
   xmlns:cc="http://creativecommons.org/ns#"
   xmlns:rdf="http://www.w3.org/1999/02/22-rdf-syntax-ns#"
   xmlns:svg="http://www.w3.org/2000/svg"
   xmlns="http://www.w3.org/2000/svg"
   xmlns:sodipodi="http://sodipodi.sourceforge.net/DTD/sodipodi-0.dtd"
   xmlns:inkscape="http://www.inkscape.org/namespaces/inkscape"
   width="128px"
   height="128px"
   viewBox="0 0 128 128"
   version="1.1"
   id="SVGRoot"
   inkscape:version="0.92.4 (5da689c313, 2019-01-14)"
   sodipodi:docname="logo.svg"
   inkscape:export-filename="/home/thibault/Downloads/logo.png"
   inkscape:export-xdpi="768"
   inkscape:export-ydpi="768">
  <defs
     id="defs3978" />
  <sodipodi:namedview
     id="base"
     pagecolor="#ffffff"
     bordercolor="#666666"
     borderopacity="1.0"
     inkscape:pageopacity="0.0"
     inkscape:pageshadow="2"
     inkscape:zoom="5.5742188"
     inkscape:cx="64"
     inkscape:cy="64"
     inkscape:document-units="px"
     inkscape:current-layer="g5061"
     showgrid="false"
     inkscape:window-width="1920"
     inkscape:window-height="1059"
     inkscape:window-x="0"
     inkscape:window-y="21"
     inkscape:window-maximized="0"
     inkscape:grid-bbox="true" />
  <metadata
     id="metadata3981">
    <rdf:RDF>
      <cc:Work
         rdf:about="">
        <dc:format>image/svg+xml</dc:format>
        <dc:type
           rdf:resource="http://purl.org/dc/dcmitype/StillImage" />
        <dc:title />
      </cc:Work>
    </rdf:RDF>
  </metadata>
  <g
     inkscape:groupmode="layer"
     id="layer2"
     inkscape:label="bg">
    <circle
       style="fill:#1e88e5;fill-opacity:1;stroke:#000000;stroke-width:1.05735207;stroke-opacity:1"
       id="path5056"
       cx="64.313942"
       cy="64.224243"
       r="62.311897" />
  </g>
  <g
     inkscape:label="Layer 1"
     inkscape:groupmode="layer"
     id="layer1">
    <g
       id="g4980"
       transform="matrix(0.92294688,0,0,0.92294688,9.1717768,11.224851)">
      <g
         id="g5061"
         transform="matrix(1.1373499,0,0,0.99819862,-7.0706553,-2.2218107)">
        <rect
           style="fill:none;stroke:#ffffff;stroke-width:3.05062636;stroke-miterlimit:4;stroke-dasharray:none;stroke-opacity:1"
           id="rect4079"
           width="102.70293"
           height="46.129936"
           x="7.9111404"
           y="38.378616" />
        <text
           xml:space="preserve"
           style="font-style:normal;font-variant:normal;font-weight:bold;font-stretch:normal;font-size:40px;line-height:1.25;font-family:sans-serif;-inkscape-font-specification:'sans-serif Bold';letter-spacing:0px;word-spacing:0px;fill:#000000;fill-opacity:1;stroke:none"
           x="7.3552899"
           y="79.562714"
           id="text4890"><tspan
             sodipodi:role="line"
             id="tspan4888"
             x="7.3552899"
             y="79.562714"
             style="font-size:50.66666794px;fill:#ffffff">R</tspan></text>
      </g>
      <g
         transform="matrix(0.16810194,0,0,0.16810194,52.005233,12.112533)"
         id="g4970">
        <path
           style="fill:#f8ec7d"
           inkscape:connector-curvature="0"
           d="m 341.73047,49.054688 c 15.60156,15.640624 15.60156,40.957031 0,56.597652 l -17.69922,17.80079 -83.69922,-83.699224 17.80078,-17.800781 c 15.64063,-15.601563 40.95703,-15.601563 56.59766,0 z m 0,0"
           id="path4950" />
        <path
           style="fill:#f8ec7d"
           inkscape:connector-curvature="0"
           d="M 135.63281,311.75391 10.03125,353.65234 51.929688,228.05469 Z m 0,0"
           id="path4952" />
        <path
           style="fill:#e48e66"
           inkscape:connector-curvature="0"
           d="M 51.886719,228.08203 240.25781,39.710938 323.98047,123.42969 135.60937,311.80078 Z m 0,0"
           id="path4954" />
        <path
           style="fill:#63316d"
           inkscape:connector-curvature="0"
           d="m 321.63281,14.851562 c -19.53515,-19.5 -51.16797,-19.5 -70.70312,0 L 233.23047,32.652344 44.832031,220.95312 l -0.402343,0.39844 c -0.09766,0.10156 -0.09766,0.20313 -0.199219,0.20313 -0.261719,0.27343 -0.496094,0.57422 -0.699219,0.89843 -0.199219,0.30079 -0.398438,0.69922 -0.601562,1 -0.0078,0.0742 -0.04297,0.14454 -0.09766,0.19922 -0.101562,0.30078 -0.300781,0.60157 -0.402343,0.90235 0,0.0977 0,0.0977 -0.09766,0.19922 L 0.53125,350.45312 c -1.226562,3.57813 -0.292969,7.54297 2.398438,10.19922 1.894531,1.86719 4.445312,2.91016 7.101562,2.90235 1.085938,-0.0195 2.160156,-0.19141 3.199219,-0.5 L 138.83203,321.15234 c 0.0977,0 0.0977,0 0.0977,-0.0976 0.32031,-0.0937 0.62109,-0.22657 0.90234,-0.40235 0.0742,-0.0117 0.14453,-0.0469 0.19922,-0.0976 0.72266,-0.33985 1.39844,-0.77735 2,-1.30078 0.10156,-0.10157 0.19922,-0.10157 0.19922,-0.19922 0.10156,-0.10157 0.30078,-0.20313 0.40234,-0.40235 l 188.39844,-188.19922 17.80078,-17.80078 c 19.5,-19.531246 19.5,-51.167965 0,-70.699215 z M 25.832031,337.85156 56.230469,246.55469 117.03125,307.35156 Z M 135.63281,297.65234 66.03125,228.05469 240.23047,53.851562 309.83203,123.45312 Z M 334.73047,98.554688 324.03125,109.25391 254.42969,39.652344 265.13281,28.953125 c 11.71094,-11.699219 30.6875,-11.699219 42.39844,0 l 27.19922,27.199219 c 11.60156,11.753906 11.60156,30.648437 0,42.402344 z m 0,0"
           id="path4956" />
      </g>
    </g>
  </g>
</svg>
